<svg xmlns="http://www.w3.org/2000/svg" width="128" height="128" viewBox="0 0 128 128">
  <title>LINE GRAPH</title>
  <g>
    <path d="M121.693,119.943H104.212v-5.4a1.75,1.75,0,0,0-3.5,0v5.4H84.981v-5.4a1.75,1.75,0,0,0-3.5,0v5.4H65.75v-5.4a1.75,1.75,0,0,0-3.5,0v5.4H46.519v-5.4a1.75,1.75,0,0,0-3.5,0v5.4H27.288v-5.4a1.75,1.75,0,0,0-3.5,0v5.4H8.057V104.212h5.4a1.75,1.75,0,0,0,0-3.5h-5.4V84.981h5.4a1.75,1.75,0,0,0,0-3.5h-5.4V65.75h5.4a1.75,1.75,0,0,0,0-3.5h-5.4V46.519h5.4a1.75,1.75,0,0,0,0-3.5h-5.4V27.288h5.4a1.75,1.75,0,1,0,0-3.5h-5.4V6.307a1.75,1.75,0,0,0-3.5,0V121.693a1.75,1.75,0,0,0,1.75,1.75H121.693a1.75,1.75,0,0,0,0-3.5Z"/>
    <path d="M121.693,4.557H110.518a1.75,1.75,0,0,0,0,3.5h6.951l-20.3,20.3a7.679,7.679,0,0,0-8.781,12.573L77.133,63.007a7.657,7.657,0,0,0-9.291,9.312L44.679,84.192a7.786,7.786,0,1,0,1.6,3.112l23.157-11.87A7.683,7.683,0,1,0,80.252,64.6l11.312-22.19a7.677,7.677,0,0,0,8.084-11.58l20.3-20.294v6.951a1.75,1.75,0,0,0,3.5,0V6.307A1.75,1.75,0,0,0,121.693,4.557ZM38.829,93.36a4.19,4.19,0,1,1,4.19-4.19A4.194,4.194,0,0,1,38.829,93.36ZM75.3,74.654a4.189,4.189,0,1,1,4.189-4.189A4.194,4.194,0,0,1,75.3,74.654ZM93.124,39.066a4.19,4.19,0,1,1,4.189-4.189A4.194,4.194,0,0,1,93.124,39.066Z"/>
  </g>
</svg>
